HIERARCHY
ROOT Hips
{
  OFFSET 197.842 101.293 11.6902
  CHANNELS 6 Xposition Yposition Zposition Zrotation Xrotation Yrotation
  JOINT Spine
  {
    OFFSET 0 6.79576 0
    CHANNELS 6 Xposition Yposition Zposition Zrotation Xrotation Yrotation
    JOINT Spine1
    {
      OFFSET 0 6.79574 0
      CHANNELS 6 Xposition Yposition Zposition Zrotation Xrotation Yrotation
      JOINT Spine2
      {
        OFFSET 0 6.79576 0
        CHANNELS 6 Xposition Yposition Zposition Zrotation Xrotation Yrotation
        JOINT Spine3
        {
          OFFSET 0 6.79575 0
          CHANNELS 6 Xposition Yposition Zposition Zrotation Xrotation Yrotation
          JOINT Neck
          {
            OFFSET 0 14.441 0
            CHANNELS 6 Xposition Yposition Zposition Zrotation Xrotation Yrotation
            JOINT Head
            {
              OFFSET 0 9.17427 0
              CHANNELS 6 Xposition Yposition Zposition Zrotation Xrotation Yrotation
              End Site
              {
                OFFSET 0 17.2017 0
              }
            }
          }
          JOINT LeftShoulder
          {
            OFFSET 5.00001 17 0
            CHANNELS 6 Xposition Yposition Zposition Zrotation Xrotation Yrotation
            JOINT LeftShoulder2
            {
              OFFSET 6.5 0 0
              CHANNELS 6 Xposition Yposition Zposition Zrotation Xrotation Yrotation
              JOINT LeftArm
              {
                OFFSET 6.49999 3.93227e-05 0
                CHANNELS 6 Xposition Yposition Zposition Zrotation Xrotation Yrotation
                JOINT LeftForeArm
                {
                  OFFSET 0 -37.9535 -1.99999
                  CHANNELS 6 Xposition Yposition Zposition Zrotation Xrotation Yrotation
                  JOINT LeftHand
                  {
                    OFFSET 0 -30.0465 2
                    CHANNELS 6 Xposition Yposition Zposition Zrotation Xrotation Yrotation
                    JOINT LeftHandThumb1
                    {
                      OFFSET -0.499996 -1.5 2.65
                      CHANNELS 6 Xposition Yposition Zposition Zrotation Xrotation Yrotation
                      JOINT LeftHandThumb2
                      {
                        OFFSET -1.2872e-05 -3.8 3.7
                        CHANNELS 6 Xposition Yposition Zposition Zrotation Xrotation Yrotation
                        JOINT LeftHandThumb3
                        {
                          OFFSET 1.13876e-05 -3 2.7
                          CHANNELS 6 Xposition Yposition Zposition Zrotation Xrotation Yrotation
                          End Site
                          {
                            OFFSET -1.36665e-05 -2.29999 1.79999
                          }
                        }
                      }
                    }
                    JOINT LeftHandIndex
                    {
                      OFFSET 0 -1.9 1.6
                      CHANNELS 6 Xposition Yposition Zposition Zrotation Xrotation Yrotation
                      JOINT LeftHandIndex1
                      {
                        OFFSET 0 -8.3 1.9
                        CHANNELS 6 Xposition Yposition Zposition Zrotation Xrotation Yrotation
                        JOINT LeftHandIndex2
                        {
                          OFFSET 0 -4.5 0
                          CHANNELS 6 Xposition Yposition Zposition Zrotation Xrotation Yrotation
                          JOINT LeftHandIndex3
                          {
                            OFFSET 1.58366e-05 -3.4 0
                            CHANNELS 6 Xposition Yposition Zposition Zrotation Xrotation Yrotation
                            End Site
                            {
                              OFFSET -1.51232e-05 -2.6 0
                            }
                          }
                        }
                      }
                    }
                    JOINT LeftHandMiddle
                    {
                      OFFSET -0.249995 -2.2 0.4
                      CHANNELS 6 Xposition Yposition Zposition Zrotation Xrotation Yrotation
                      JOINT LeftHandMiddle1
                      {
                        OFFSET 0 -8.30001 1
                        CHANNELS 6 Xposition Yposition Zposition Zrotation Xrotation Yrotation
                        JOINT LeftHandMiddle2
                        {
                          OFFSET -1.28491e-05 -4.65 0
                          CHANNELS 6 Xposition Yposition Zposition Zrotation Xrotation Yrotation
                          JOINT LeftHandMiddle3
                          {
                            OFFSET 0 -3.3 0
                            CHANNELS 6 Xposition Yposition Zposition Zrotation Xrotation Yrotation
                            End Site
                            {
                              OFFSET 0 -2.7 0
                            }
                          }
                        }
                      }
                    }
                    JOINT LeftHandRing
                    {
                      OFFSET -0.500007 -2.15 -0.800001
                      CHANNELS 6 Xposition Yposition Zposition Zrotation Xrotation Yrotation
                      JOINT LeftHandRing1
                      {
                        OFFSET 0 -7.75 -0.2
                        CHANNELS 6 Xposition Yposition Zposition Zrotation Xrotation Yrotation
                        JOINT LeftHandRing2
                        {
                          OFFSET 1.07096e-05 -3.8 0
                          CHANNELS 6 Xposition Yposition Zposition Zrotation Xrotation Yrotation
                          JOINT LeftHandRing3
                          {
                            OFFSET 0 -3.4 0
                            CHANNELS 6 Xposition Yposition Zposition Zrotation Xrotation Yrotation
                            End Site
                            {
                              OFFSET 0 -2.60001 0
                            }
                          }
                        }
                      }
                    }
                    JOINT LeftHandPinky
                    {
                      OFFSET -0.75 -1.75 -1.85
                      CHANNELS 6 Xposition Yposition Zposition Zrotation Xrotation Yrotation
                      JOINT LeftHandPinky1
                      {
                        OFFSET 0 -7.15 -0.999994
                        CHANNELS 6 Xposition Yposition Zposition Zrotation Xrotation Yrotation
                        JOINT LeftHandPinky2
                        {
                          OFFSET 0 -3 0
                          CHANNELS 6 Xposition Yposition Zposition Zrotation Xrotation Yrotation
                          JOINT LeftHandPinky3
                          {
                            OFFSET 0 -2.35 0
                            CHANNELS 6 Xposition Yposition Zposition Zrotation Xrotation Yrotation
                            End Site
                            {
                              OFFSET 1.46766e-05 -2.1 0
                            }
                          }
                        }
                      }
                    }
                  }
                }
              }
            }
          }
          JOINT RightShoulder
          {
            OFFSET -4.99999 17 0
            CHANNELS 6 Xposition Yposition Zposition Zrotation Xrotation Yrotation
            JOINT RightShoulder2
            {
              OFFSET -6.5 0 0
              CHANNELS 6 Xposition Yposition Zposition Zrotation Xrotation Yrotation
              JOINT RightArm
              {
                OFFSET -6.5 0 0
                CHANNELS 6 Xposition Yposition Zposition Zrotation Xrotation Yrotation
                JOINT RightForeArm
                {
                  OFFSET -1.20474e-05 -37.9535 -2.00001
                  CHANNELS 6 Xposition Yposition Zposition Zrotation Xrotation Yrotation
                  JOINT RightHand
                  {
                    OFFSET 0 -30.0465 2
                    CHANNELS 6 Xposition Yposition Zposition Zrotation Xrotation Yrotation
                    JOINT RightHandThumb1
                    {
                      OFFSET 0.500007 -1.50001 2.65001
                      CHANNELS 6 Xposition Yposition Zposition Zrotation Xrotation Yrotation
                      JOINT RightHandThumb2
                      {
                        OFFSET 0 -3.79999 3.7
                        CHANNELS 6 Xposition Yposition Zposition Zrotation Xrotation Yrotation
                        JOINT RightHandThumb3
                        {
                          OFFSET -1.08124e-05 -3 2.7
                          CHANNELS 6 Xposition Yposition Zposition Zrotation Xrotation Yrotation
                          End Site
                          {
                            OFFSET 0 -2.3 1.8
                          }
                        }
                      }
                    }
                    JOINT RightHandIndex
                    {
                      OFFSET 0 -1.9 1.6
                      CHANNELS 6 Xposition Yposition Zposition Zrotation Xrotation Yrotation
                      JOINT RightHandIndex1
                      {
                        OFFSET 0 -8.3 1.9
                        CHANNELS 6 Xposition Yposition Zposition Zrotation Xrotation Yrotation
                        JOINT RightHandIndex2
                        {
                          OFFSET 1.08286e-05 -4.5 0
                          CHANNELS 6 Xposition Yposition Zposition Zrotation Xrotation Yrotation
                          JOINT RightHandIndex3
                          {
                            OFFSET 0 -3.39999 0
                            CHANNELS 6 Xposition Yposition Zposition Zrotation Xrotation Yrotation
                            End Site
                            {
                              OFFSET 0 -2.6 0
                            }
                          }
                        }
                      }
                    }
                    JOINT RightHandMiddle
                    {
                      OFFSET 0.249995 -2.2 0.4
                      CHANNELS 6 Xposition Yposition Zposition Zrotation Xrotation Yrotation
                      JOINT RightHandMiddle1
                      {
                        OFFSET 0 -8.3 1
                        CHANNELS 6 Xposition Yposition Zposition Zrotation Xrotation Yrotation
                        JOINT RightHandMiddle2
                        {
                          OFFSET 0 -4.65 0
                          CHANNELS 6 Xposition Yposition Zposition Zrotation Xrotation Yrotation
                          JOINT RightHandMiddle3
                          {
                            OFFSET 0 -3.3 0
                            CHANNELS 6 Xposition Yposition Zposition Zrotation Xrotation Yrotation
                            End Site
                            {
                              OFFSET 0 -2.7 0
                            }
                          }
                        }
                      }
                    }
                    JOINT RightHandRing
                    {
                      OFFSET 0.500003 -2.15 -0.799997
                      CHANNELS 6 Xposition Yposition Zposition Zrotation Xrotation Yrotation
                      JOINT RightHandRing1
                      {
                        OFFSET 0 -7.75 -0.200002
                        CHANNELS 6 Xposition Yposition Zposition Zrotation Xrotation Yrotation
                        JOINT RightHandRing2
                        {
                          OFFSET 0 -3.8 0
                          CHANNELS 6 Xposition Yposition Zposition Zrotation Xrotation Yrotation
                          JOINT RightHandRing3
                          {
                            OFFSET 0 -3.4 0
                            CHANNELS 6 Xposition Yposition Zposition Zrotation Xrotation Yrotation
                            End Site
                            {
                              OFFSET 0 -2.60001 0
                            }
                          }
                        }
                      }
                    }
                    JOINT RightHandPinky
                    {
                      OFFSET 0.749995 -1.75 -1.85
                      CHANNELS 6 Xposition Yposition Zposition Zrotation Xrotation Yrotation
                      JOINT RightHandPinky1
                      {
                        OFFSET 1.04198e-05 -7.15 -0.999992
                        CHANNELS 6 Xposition Yposition Zposition Zrotation Xrotation Yrotation
                        JOINT RightHandPinky2
                        {
                          OFFSET 0 -3 0
                          CHANNELS 6 Xposition Yposition Zposition Zrotation Xrotation Yrotation
                          JOINT RightHandPinky3
                          {
                            OFFSET 0 -2.35 0
                            CHANNELS 6 Xposition Yposition Zposition Zrotation Xrotation Yrotation
                            End Site
                            {
                              OFFSET 0 -2.09999 0
                            }
                          }
                        }
                      }
                    }
                  }
                }
              }
            }
          }
        }
      }
    }
  }
  JOINT LeftUpLeg
  {
    OFFSET 10 0 0
    CHANNELS 6 Xposition Yposition Zposition Zrotation Xrotation Yrotation
    JOINT LeftLeg
    {
      OFFSET 0 -49.4477 -1
      CHANNELS 6 Xposition Yposition Zposition Zrotation Xrotation Yrotation
      JOINT LeftFoot
      {
        OFFSET 0 -45.0524 -2
        CHANNELS 6 Xposition Yposition Zposition Zrotation Xrotation Yrotation
        JOINT LeftToeBase
        {
          OFFSET 0 -7.5 12.5
          CHANNELS 6 Xposition Yposition Zposition Zrotation Xrotation Yrotation
          JOINT LeftFootToe
          {
            OFFSET 0 0 4
            CHANNELS 6 Xposition Yposition Zposition Zrotation Xrotation Yrotation
            End Site
            {
              OFFSET 0 0 0
            }
          }
        }
      }
    }
  }
  JOINT RightUpLeg
  {
    OFFSET -10 0 0
    CHANNELS 6 Xposition Yposition Zposition Zrotation Xrotation Yrotation
    JOINT RightLeg
    {
      OFFSET -1.64136e-05 -49.4477 -1
      CHANNELS 6 Xposition Yposition Zposition Zrotation Xrotation Yrotation
      JOINT RightFoot
      {
        OFFSET 0 -45.0524 -2
        CHANNELS 6 Xposition Yposition Zposition Zrotation Xrotation Yrotation
        JOINT RightToeBase
        {
          OFFSET 0 -7.50001 12.5
          CHANNELS 6 Xposition Yposition Zposition Zrotation Xrotation Yrotation
          JOINT RightFootToe
          {
            OFFSET 0 0 4
            CHANNELS 6 Xposition Yposition Zposition Zrotation Xrotation Yrotation
            End Site
            {
              OFFSET 0 0 0
            }
          }
        }
      }
    }
  }
}
MOTION
Frames:	3
Frame Time:	0.0111111
187.721 101.688 20.7166 -0.655557 -1.90674 -38.5964 2.84217e-14 6.79575 0 1.1631 1.37511 1.27488 0 6.79575 0 0.288452 0.00239551 8.07094 2.84217e-14 6.79575 -1.42109e-14 -0.228798 0.726755 3.01563 0 6.79575 1.42109e-14 -0.126802 2.13756 2.8163 2.84217e-14 14.441 0 -4.49485 5.76058 12.8386 2.84217e-14 9.17427 0 -12.577 11.6652 31.2699 5 17 -7.10543e-15 3.03416e-05 -0.00426899 0.440125 6.5 0 -7.10543e-15 3.25627e-05 -0.00423909 0.440111 6.5 -5.68434e-14 1.42109e-14 10.1725 3.9932 -2.86172 -2.84217e-14 -37.9535 -2 -123.963 -53.5215 -97.3721 0 -30.0465 2 29.1588 -5.00705 -16.5467 -0.5 -1.5 2.65 6.40514 -10.9069 5.88969 2.84217e-14 -3.8 3.7 0.0829944 -0.926282 -0.0104998 0 -3 2.7 0.00237309 10.6594 -0.00807262 0 -1.9 1.6 3.50625e-06 -4.45589e-06 -2.83723e-06 0 -8.3 1.9 -5.05766 -17.9303 -0.611361 0 -4.5 0 -0.000303867 0.00565574 2.73472e-05 0 -3.4 2.84217e-14 -1.29217e-06 0.00557918 -7.62182e-06 -0.25 -2.2 0.4 3.50625e-06 -4.45589e-06 -2.83723e-06 2.84217e-14 -8.3 1 -6.56549 -16.6505 -0.652572 0 -4.65 0 -4.29032e-05 -7.66053e-06 3.60373e-05 0 -3.3 -2.84217e-14 2.40003e-06 1.37176e-06 1.1919e-06 -0.5 -2.15 -0.8 3.50625e-06 -4.45589e-06 -2.83723e-06 0 -7.75 -0.2 -8.62984 -15.8007 -0.649085 0 -3.8 -2.84217e-14 -2.65786e-05 4.05232e-06 -4.36725e-06 0 -3.4 -2.84217e-14 -1.2577e-06 1.64477e-06 2.37749e-06 -0.75 -1.75 -1.85 3.50625e-06 -4.45589e-06 -2.83723e-06 -2.84217e-14 -7.15 -1 -8.79459 -17.5579 -0.573152 0 -3 0 0.00819111 0.00552405 0.00251108 0 -2.35 0 0.00812857 0.00531199 0.00276044 -5 17 7.10543e-15 0.000303929 -0.00611864 2.81193 -6.5 0 0 0.000299807 -0.00610395 2.81193 -6.5 2.84217e-14 0 -13.297 -11.834 13.5954 0 -37.9535 -2 46.9961 -64.6501 35.4482 0 -30.0465 2 -13.5418 2.33895 48.7527 0.5 -1.5 2.65 -6.39746 -7.36308 -8.61386 7.10543e-15 -3.8 3.7 0.0237886 8.66314 -0.00161677 -2.13163e-14 -3 2.7 0.00549935 -0.0609506 -0.00675348 5.32907e-15 -1.9 1.6 1.18378e-06 -9.7053e-06 5.03183e-06 -1.06581e-14 -8.3 1.9 0.479749 -5.87903 0.0187916 -1.06581e-14 -4.5 0 0.00766866 0.0021518 0.00383686 1.24345e-14 -3.4 2.84217e-14 0.00762992 0.00206907 0.00374038 0.25 -2.2 0.4 1.18378e-06 -9.7053e-06 5.03183e-06 1.42109e-14 -8.3 1 1.5186 -5.45139 0.0391567 -3.55271e-15 -4.65 0 0.119039 -0.000972412 0.000839939 8.88178e-15 -3.3 0 2.53455e-06 0.000291887 0.00273697 0.5 -2.15 -0.8 1.18378e-06 -9.7053e-06 5.03183e-06 -3.55271e-15 -7.75 -0.2 2.6453 -13.2536 0.00869607 -8.88178e-15 -3.8 0 0.0709321 0.00296249 0.00176303 8.88178e-15 -3.4 2.84217e-14 0.00727003 0.00278024 0.00145685 0.75 -1.75 -1.85 1.18378e-06 -9.7053e-06 5.03183e-06 -3.55271e-15 -7.15 -1 1.01213 -8.39118 -0.0832422 1.95399e-14 -3 2.84217e-14 8.97796e-06 -0.00205201 -0.00238209 -1.77636e-15 -2.35 0 -6.00468e-06 -0.0018022 -0.00216348 10 1.42109e-14 -1.42109e-14 -12.6821 -27.3645 -3.36935 0 -49.4477 -1 3.528 48.4836 -9.31965 -2.84217e-14 -45.0523 -2 11.4807 -17.8144 18.9638 0 -7.5 12.5 -2.36161e-06 -4.63669e-07 5.41863e-08 0 1.77636e-15 4 -1.48483 -4.43074 -0.0357156 -10 0 1.42109e-14 -14.916 -10.421 -5.7952 -1.42109e-14 -49.4477 -1 0.17448 24.6281 -0.803811 0 -45.0523 -2 2.16008 -0.680944 34.1073 0 -7.5 12.5 -5.21861e-09 -8.4895e-07 -5.56597e-13 -2.84217e-14 8.88178e-16 4 -9.03295 0.164949 -2.34661 
187.554 101.688 20.7781 -0.614445 -1.99651 -37.6162 0 6.79575 0 1.0187 1.435 0.986613 0 6.79575 0 0.265283 0.00152081 7.94449 -2.84217e-14 6.79575 0 -0.235775 0.732558 2.97599 2.84217e-14 6.79575 0 -0.124985 2.12836 2.80521 2.84217e-14 14.441 0 -4.50118 5.75554 12.894 0 9.17427 0 -12.5975 11.6427 31.4033 5 17 7.10543e-15 3.25462e-05 -0.00426897 0.469714 6.5 0 7.10543e-15 3.45971e-05 -0.00423907 0.467608 6.5 0 1.42109e-14 10.176 4.12 -2.59676 2.84217e-14 -37.9535 -2 -123.675 -53.2491 -96.867 -1.42109e-14 -30.0465 2 29.1018 -4.8765 -16.2583 -0.5 -1.5 2.65 6.32019 -10.7985 5.71078 0 -3.8 3.7 0.0830632 -0.926292 -0.0104998 0 -3 2.7 0.00278213 10.7437 -0.00810675 0 -1.9 1.6 3.50625e-06 -4.45589e-06 -2.83723e-06 -2.84217e-14 -8.3 1.9 -5.02547 -17.8806 -0.605336 0 -4.5 -2.84217e-14 -0.000303867 0.00565574 2.73472e-05 2.84217e-14 -3.4 0 -1.29217e-06 0.00557918 -7.62182e-06 -0.25 -2.2 0.4 3.50625e-06 -4.45589e-06 -2.83723e-06 0 -8.3 1 -6.50072 -16.6358 -0.643522 2.84217e-14 -4.65 0 -4.29032e-05 -7.66053e-06 3.60373e-05 -2.84217e-14 -3.3 0 2.40003e-06 1.37176e-06 1.1919e-06 -0.5 -2.15 -0.8 3.50625e-06 -4.45589e-06 -2.83723e-06 0 -7.75 -0.2 -8.52497 -15.8184 -0.637109 0 -3.8 0 -2.65786e-05 4.05232e-06 -4.36725e-06 -2.84217e-14 -3.4 0 -1.2577e-06 1.64477e-06 2.37749e-06 -0.75 -1.75 -1.85 3.50625e-06 -4.45589e-06 -2.83723e-06 5.68434e-14 -7.15 -1 -8.6819 -17.5106 -0.558168 0 -3 0 0.00780481 0.00552405 0.00251108 0 -2.35 0 0.00782998 0.00531199 0.00276044 -5 17 0 0.000305928 -0.00611854 2.83064 -6.5 0 0 0.000301772 -0.00610385 2.83038 -6.5 -2.84217e-14 0 -13.5257 -11.8936 13.662 -2.84217e-14 -37.9535 -2 46.8155 -64.5686 35.4305 -2.84217e-14 -30.0465 2 -13.5197 2.31886 49.0507 0.5 -1.5 2.65 -6.36334 -7.32303 -8.61216 7.10543e-15 -3.8 3.7 0.0237901 8.71609 -0.001617 0 -3 2.7 0.00549935 -0.0609506 -0.00675348 5.32907e-15 -1.9 1.6 1.18378e-06 -9.7053e-06 5.03183e-06 -7.10543e-15 -8.3 1.9 0.470405 -5.821 0.0187897 1.06581e-14 -4.5 -2.84217e-14 0.00766866 0.0021518 0.00383686 1.06581e-14 -3.4 -2.84217e-14 0.00762992 0.00206907 0.00374038 0.25 -2.2 0.4 1.18378e-06 -9.7053e-06 5.03183e-06 -1.77636e-14 -8.3 1 1.53689 -5.47879 0.0413543 -5.32907e-15 -4.65 -2.84217e-14 0.119039 -0.000972412 0.000839939 -8.88178e-15 -3.3 0 2.53455e-06 0.000291887 0.00273697 0.5 -2.15 -0.8 1.18378e-06 -9.7053e-06 5.03183e-06 -1.42109e-14 -7.75 -0.2 2.65309 -13.2732 0.00930883 7.10543e-15 -3.8 0 0.0709321 0.00296249 0.00176303 -1.95399e-14 -3.4 -2.84217e-14 0.00727003 0.00278024 0.00145685 0.75 -1.75 -1.85 1.18378e-06 -9.7053e-06 5.03183e-06 -2.4869e-14 -7.15 -1 1.01351 -8.39824 -0.0830808 1.42109e-14 -3 0 8.97796e-06 -0.00205201 -0.00238209 -2.13163e-14 -2.35 0 -6.00468e-06 -0.0018022 -0.00216348 10 1.42109e-14 -2.84217e-14 -13.0281 -27.1478 -3.99212 0 -49.4477 -1 3.57929 48.5091 -9.37606 0 -45.0523 -2 11.4581 -17.8967 18.8893 0 -7.5 12.5 -2.36161e-06 -4.63669e-07 5.41863e-08 -2.84217e-14 -1.77636e-15 4 -1.40087 -4.50124 0.0115512 -10 0 0 -14.1814 -10.5332 -4.86414 1.42109e-14 -49.4477 -1 0.157229 24.2191 -0.694415 2.84217e-14 -45.0523 -2 1.9628 -0.21797 35.2729 0 -7.5 12.5 -5.21862e-09 -1.2988 -5.58331e-13 0 0 4 -9.00316 0.177579 -2.35443 
187.382 101.69 20.817 -0.572623 -2.08821 -36.6567 -2.84217e-14 6.79575 -1.42109e-14 0.87958 1.49951 0.712803 -2.84217e-14 6.79575 0 0.241568 0.00186924 7.83093 2.84217e-14 6.79575 0 -0.24379 0.738108 2.93876 2.84217e-14 6.79575 -7.10543e-15 -0.123189 2.11496 2.7975 0 14.441 0 -4.51415 5.755 12.9451 5.68434e-14 9.17427 -7.10543e-15 -12.6348 11.6288 31.5287 5 17 -7.10543e-15 3.46981e-05 -0.00426896 0.498595 6.5 -5.68434e-14 0 3.67932e-05 -0.00423906 0.497291 6.5 0 -7.10543e-15 10.1633 4.24286 -2.33422 0 -37.9535 -2 -123.343 -52.9742 -96.3034 1.42109e-14 -30.0465 2 29.0329 -4.76057 -15.9224 -0.5 -1.5 2.65 6.23484 -10.6811 5.51641 -2.84217e-14 -3.8 3.7 0.0831324 -0.926303 -0.0104998 0 -3 2.7 0.00322189 10.8299 -0.00814477 0 -1.9 1.6 3.50625e-06 -4.45589e-06 -2.83723e-06 -2.84217e-14 -8.3 1.9 -4.99713 -17.8367 -0.600097 0 -4.5 0 -0.000303867 0.00565574 2.73472e-05 -2.84217e-14 -3.4 2.84217e-14 -1.29217e-06 0.00557918 -7.62182e-06 -0.25 -2.2 0.4 3.50625e-06 -4.45589e-06 -2.83723e-06 0 -8.3 1 -6.44096 -16.6282 -0.635391 0 -4.65 -2.84217e-14 -4.29032e-05 -7.66053e-06 3.60373e-05 2.84217e-14 -3.3 -2.84217e-14 2.40003e-06 1.37176e-06 1.1919e-06 -0.5 -2.15 -0.8 3.50625e-06 -4.45589e-06 -2.83723e-06 0 -7.75 -0.2 -8.42169 -15.8433 -0.62545 0 -3.8 -2.84217e-14 -2.65786e-05 4.05232e-06 -4.36725e-06 2.84217e-14 -3.4 0 -1.2577e-06 1.64477e-06 2.37749e-06 -0.75 -1.75 -1.85 3.50625e-06 -4.45589e-06 -2.83723e-06 0 -7.15 -1 -8.57585 -17.4612 -0.544413 0 -3 -2.84217e-14 0.00738938 0.00552405 0.00251108 0 -2.35 0 0.00751513 0.00531199 0.00276044 -5 17 -7.10543e-15 0.000308163 -0.00611843 2.85157 -6.5 2.84217e-14 7.10543e-15 0.00030402 -0.00610374 2.85148 -6.5 2.84217e-14 0 -13.7636 -11.9629 13.7327 -2.84217e-14 -37.9535 -2 46.6066 -64.4635 35.3741 0 -30.0465 2 -13.5158 2.27708 49.3315 0.5 -1.5 2.65 -6.32639 -7.28526 -8.62085 7.10543e-15 -3.8 3.7 0.0237917 8.7702 -0.00161723 2.84217e-14 -3 2.7 0.00549935 -0.0609506 -0.00675348 -3.55271e-15 -1.9 1.6 1.18378e-06 -9.7053e-06 5.03183e-06 -1.77636e-15 -8.3 1.9 0.461357 -5.76396 0.0187878 -1.06581e-14 -4.5 0 0.00766866 0.0021518 0.00383686 1.24345e-14 -3.4 -2.84217e-14 0.00762992 0.00206907 0.00374038 0.25 -2.2 0.4 1.18378e-06 -9.7053e-06 5.03183e-06 1.77636e-15 -8.3 1 1.55236 -5.50709 0.0442422 5.32907e-15 -4.65 -2.84217e-14 0.119039 -0.000972412 0.000839939 1.42109e-14 -3.3 0 2.53455e-06 0.000291887 0.00273697 0.5 -2.15 -0.8 1.18378e-06 -9.7053e-06 5.03183e-06 -1.24345e-14 -7.75 -0.2 2.65953 -13.2899 0.00993519 8.88178e-15 -3.8 -2.84217e-14 0.0709321 0.00296249 0.00176303 -2.30926e-14 -3.4 0 0.00727003 0.00278024 0.00145685 0.75 -1.75 -1.85 1.18378e-06 -9.7053e-06 5.03183e-06 5.32907e-15 -7.15 -1 1.01569 -8.4097 -0.0829156 -8.88178e-15 -3 -2.84217e-14 8.97796e-06 -0.00205201 -0.00238209 1.42109e-14 -2.35 0 -6.00468e-06 -0.0018022 -0.00216348 10 1.42109e-14 1.42109e-14 -13.3599 -26.9337 -4.60325 2.84217e-14 -49.4477 -1 3.63369 48.538 -9.43647 2.84217e-14 -45.0523 -2 11.4261 -17.9787 18.8159 0 -7.5 12.5 -2.36161e-06 -4.63669e-07 5.41862e-08 -2.84217e-14 0 4 -1.31604 -4.56883 -0.00445035 -10 0 0 -13.433 -10.6289 -3.94126 2.84217e-14 -49.4477 -1 0.144695 23.7731 -0.604406 0 -45.0523 -2 1.76161 0.218152 36.2975 0 -7.5 12.5 -5.21864e-09 -3.16627 -5.56652e-13 0 -8.88178e-16 4 -8.9177 2.1158 -2.02631 
